<?xml version="1.0" encoding="utf-8"?>
<!-- Generator: Adobe Illustrator 24.0.1, SVG Export Plug-In . SVG Version: 6.00 Build 0)  -->
<svg version="1.1" id="Add-user" xmlns="http://www.w3.org/2000/svg" xmlns:xlink="http://www.w3.org/1999/xlink" x="0px" y="0px"
	 viewBox="0 0 22 22" style="enable-background:new 0 0 22 22;" xml:space="preserve">
<path id="Shape" d="M10.4,11.3c3,0,5.5-2.5,5.5-5.5s-2.5-5.5-5.5-5.5S4.8,2.7,4.8,5.7S7.3,11.3,10.4,11.3z M10.4,3
	c1.5,0,2.7,1.2,2.7,2.7s-1.2,2.7-2.7,2.7S7.6,7.2,7.6,5.7S8.8,3,10.4,3z"/>
<path id="Path_1_" d="M14.4,14.5c0.3-0.7,0-1.5-0.7-1.8c-1-0.4-2.1-0.7-3.2-0.7c-4.6,0-8.3,3.7-8.3,8.3c0,0.8,0.6,1.4,1.4,1.4
	s1.4-0.6,1.4-1.4c0-3.1,2.5-5.6,5.6-5.6c0.8,0,1.5,0.2,2.2,0.4C13.3,15.5,14.1,15.2,14.4,14.5z"/>
<path id="Path_2_" d="M18.7,16.7h-1.1v-1.1c0-0.7-0.6-1.3-1.3-1.3c-0.7,0-1.3,0.6-1.3,1.3v1.1H14c-0.7,0-1.3,0.6-1.3,1.3
	s0.6,1.3,1.3,1.3h1.1v1.1c0,0.7,0.6,1.3,1.3,1.3c0.7,0,1.3-0.6,1.3-1.3v-1.1h1.1c0.7,0,1.3-0.6,1.3-1.3S19.4,16.7,18.7,16.7z"/>
</svg>
