<?xml version="1.0" encoding="utf-8"?>
<!-- Generator: Adobe Illustrator 24.0.1, SVG Export Plug-In . SVG Version: 6.00 Build 0)  -->
<svg version="1.1" id="path" xmlns="http://www.w3.org/2000/svg" xmlns:xlink="http://www.w3.org/1999/xlink" x="0px" y="0px"
	 viewBox="0 0 22 20" style="enable-background:new 0 0 22 20;" xml:space="preserve">
<path id="path-1_1_" d="M1.8,15.1v2.2h1.8v2.2H0.9c-0.5,0-0.9-0.5-0.9-1.1l0,0v-3.2H1.8z M22,15.1v3.2c0,0.6-0.4,1.1-0.9,1.1l0,0
	h-2.8v-2.2h1.8v-2.2H22z M5.5,11.9v4.3H3.7v-4.3H5.5z M8.2,11.9v4.3H6.4v-4.3H8.2z M12.8,11.9v4.3H11v-4.3H12.8z M15.6,11.9v4.3
	h-1.8v-4.3H15.6z M18.3,11.9v4.3h-1.8v-4.3H18.3z M22,8.7v2.2H0V8.7H22z M5.5,3.3v4.3H3.7V3.3H5.5z M8.2,3.3v4.3H6.4V3.3H8.2z
	 M12.8,3.3v4.3H11V3.3H12.8z M15.6,3.3v4.3h-1.8V3.3H15.6z M18.3,3.3v4.3h-1.8V3.3H18.3z M3.7,0.1v2.2H1.8v2.2H0V1.1
	c0-0.6,0.4-1.1,0.9-1.1l0,0H3.7z M21.1,0.1c0.5,0,0.9,0.5,0.9,1.1l0,0v3.2h-1.8V2.2h-1.8V0.1H21.1z"/>
</svg>
