<?xml version="1.0" encoding="utf-8"?>
<svg version="1.1" id="Heart-stroke" xmlns="http://www.w3.org/2000/svg" xmlns:xlink="http://www.w3.org/1999/xlink" x="0px"
	 y="0px" viewBox="0 0 22 22" style="enable-background:new 0 0 22 22;" xml:space="preserve">
<path id="heart-stroke" d="M11,20l-7.5-7.4C2.9,12,1,10,1,7.4c0-1.6,0.5-2.9,1.3-4l0.1-0.1C3.4,2.5,4.8,2,6.3,2c2,0,3.6,1.4,4.7,2.5
	C12.1,3.4,13.7,2,15.7,2c1.6,0,3,0.5,3.9,1.4c0.9,1.1,1.4,2.4,1.4,4c0,2.3-1.6,4.2-2.2,4.9c-0.1,0.1-0.1,0.1-0.1,0.2l-0.1,0.1L11,20
	z M3.8,4.8C3.3,5.5,3,6.3,3,7.4c0,1.8,1.6,3.5,1.9,3.8l6.1,6l6.1-6c0-0.1,0.1-0.1,0.2-0.2c0.5-0.6,1.8-2,1.8-3.6
	c0-1.1-0.3-2-0.9-2.6C17.7,4.3,16.8,4,15.7,4c-1.4,0-2.8,1.4-3.3,1.9c-0.1,0.1-0.1,0.2-0.2,0.2c-0.1,0.2-0.3,0.4-0.5,0.6L11,7.4
	l-0.7-0.7c-0.2-0.2-0.3-0.4-0.5-0.6C9.7,6.1,9.7,6,9.6,5.9C9.1,5.4,7.7,4,6.3,4C5.3,4,4.4,4.3,3.8,4.8z"/>
</svg>
