<?xml version="1.0" encoding="utf-8"?>
<!-- Generator: Adobe Illustrator 24.0.1, SVG Export Plug-In . SVG Version: 6.00 Build 0)  -->
<svg version="1.1" id="Left-Arrow" xmlns="http://www.w3.org/2000/svg" xmlns:xlink="http://www.w3.org/1999/xlink" x="0px" y="0px"
	 viewBox="0 0 20 20" style="enable-background:new 0 0 20 20;" xml:space="preserve">
<path id="left-arrow" class="st0" d="M11.5,18.5l-1,1c-0.4,0.4-1.1,0.4-1.5,0l-8.7-8.7c-0.4-0.4-0.4-1.1,0-1.5L9,0.6
	c0.4-0.4,1.1-0.4,1.5,0l1,1c0.4,0.4,0.4,1.1,0,1.5L6.1,8.3h12.8c0.6,0,1.1,0.5,1.1,1.1v1.4c0,0.6-0.5,1.1-1.1,1.1H6.1l5.4,5.1
	C11.9,17.4,11.9,18,11.5,18.5z"/>
</svg>
