<?xml version="1.0" encoding="utf-8"?>
<!-- Generator: Adobe Illustrator 24.0.1, SVG Export Plug-In . SVG Version: 6.00 Build 0)  -->
<svg version="1.1" id="Search" xmlns="http://www.w3.org/2000/svg" xmlns:xlink="http://www.w3.org/1999/xlink" x="0px" y="0px"
	 viewBox="0 0 20 20" style="enable-background:new 0 0 20 20;" xml:space="preserve">
<path id="shape" class="st0" d="M19,17.2l-3.9-3.9c0.9-1.4,1.4-2.9,1.4-4.5c0-1.1-0.2-2.1-0.6-3.1c-0.4-1-1-1.8-1.7-2.6
	s-1.6-1.3-2.6-1.7c-1-0.4-2-0.6-3.1-0.6S6.4,0.9,5.4,1.4c-1,0.4-1.8,1-2.6,1.7S1.6,4.6,1.1,5.6c-0.4,1-0.6,2-0.6,3.1
	s0.2,2.1,0.6,3.1c0.4,1,1,1.8,1.7,2.6c0.7,0.7,1.6,1.3,2.6,1.7c1,0.4,2,0.6,3.1,0.6c1.7,0,3.2-0.5,4.5-1.4l3.9,3.9
	c0.3,0.3,0.6,0.4,1,0.4c0.4,0,0.7-0.1,1-0.4c0.3-0.3,0.4-0.6,0.4-1C19.5,17.8,19.3,17.5,19,17.2L19,17.2z M12.1,12.3
	c-1,1-2.2,1.5-3.6,1.5c-1.4,0-2.6-0.5-3.6-1.5c-1-1-1.5-2.2-1.5-3.6c0-1.4,0.5-2.6,1.5-3.6c1-1,2.2-1.5,3.6-1.5s2.6,0.5,3.6,1.5
	c1,1,1.5,2.2,1.5,3.6C13.6,10.1,13.1,11.3,12.1,12.3L12.1,12.3z"/>
</svg>

