<?xml version="1.0" encoding="utf-8"?>
<!-- Generator: Adobe Illustrator 24.0.1, SVG Export Plug-In . SVG Version: 6.00 Build 0)  -->
<svg version="1.1" id="Stroke_x5F_heart" xmlns="http://www.w3.org/2000/svg" xmlns:xlink="http://www.w3.org/1999/xlink" x="0px"
	 y="0px" viewBox="0 0 24 21" style="enable-background:new 0 0 24 21;" xml:space="preserve">
<style type="text/css">
	.st0{fill:#CFCFCF;}
</style>
<path id="Path" class="st0" d="M12,20.8l-9-8.6c-0.3-0.2-3-2.8-3-6c0-1.9,0.6-3.5,1.7-4.6C2.8,0.6,4.4,0,6.4,0c1.8,0,3.7,1,5.6,2.9
	l0,0C13.9,1,15.8,0,17.6,0c2,0,3.6,0.6,4.7,1.7S24,4.3,24,6.2c0,2.8-2.1,5.1-3,6L12,20.8z M6.4,2C4.9,2,3.8,2.4,3.1,3.1
	C2.4,3.8,2,4.9,2,6.2c0,2.4,2.4,4.5,2.4,4.5L12,18l7.6-7.2c0.6-0.6,2.4-2.5,2.4-4.5c0-1.4-0.4-2.4-1.1-3.2C20.2,2.4,19.1,2,17.6,2
	c-0.8,0-2.3,0.4-4.2,2.3C13.2,4.5,13,4.7,12.7,5L12,5.8L11.3,5c-0.2-0.3-0.5-0.5-0.7-0.7C8.7,2.4,7.2,2,6.4,2z"/>
</svg>
